<svg width="48" height="48" viewBox="0 0 48 48" fill="none" xmlns="http://www.w3.org/2000/svg">
<rect x="6" y="3.78949" width="30.273" height="35.3185" rx="4.33083" fill="white" stroke="#3139CE" stroke-width="2"/>
<path d="M12.7275 16.2441C12.1753 16.2441 11.7275 16.6918 11.7275 17.2441C11.7275 17.7964 12.1753 18.2441 12.7275 18.2441V16.2441ZM29.5459 18.2441C30.0981 18.2441 30.5459 17.7964 30.5459 17.2441C30.5459 16.6918 30.0981 16.2441 29.5459 16.2441V18.2441ZM12.7275 18.2441H29.5459V16.2441H12.7275V18.2441Z" fill="#3139CE"/>
<path d="M12.7275 9.51654C12.1753 9.51654 11.7275 9.96426 11.7275 10.5165C11.7275 11.0688 12.1753 11.5165 12.7275 11.5165V9.51654ZM29.5459 11.5165C30.0981 11.5165 30.5459 11.0688 30.5459 10.5165C30.5459 9.96426 30.0981 9.51654 29.5459 9.51654V11.5165ZM12.7275 11.5165H29.5459V9.51654H12.7275V11.5165Z" fill="#3139CE"/>
<path d="M40.835 27.4955H31.7113C30.5154 27.4955 29.5459 28.465 29.5459 29.661V36.4226C29.5459 38.6244 30.6612 40.6763 32.5089 41.8739L34.8991 43.4231C35.735 43.9649 36.8113 43.9649 37.6472 43.4231L40.0375 41.8739C41.8851 40.6763 43.0004 38.6244 43.0004 36.4225V29.661C43.0004 28.465 42.0309 27.4955 40.835 27.4955Z" fill="white" stroke="#3139CE" stroke-width="2" stroke-linejoin="round"/>
</svg>
