<svg width="48" height="48" viewBox="0 0 48 48" fill="none" xmlns="http://www.w3.org/2000/svg">
<path d="M31.958 9.6116C31.958 8.45894 32.6117 7.406 33.6447 6.89466L39.5519 3.9706C40.8952 3.30566 42.4695 4.28302 42.4695 5.78189V30.1292C42.4695 31.2818 41.8159 32.3348 40.7828 32.8461L34.8757 35.7702C33.5323 36.4351 31.958 35.4577 31.958 33.9589V9.6116Z" stroke="#3139CE" stroke-width="2"/>
<path d="M27.7539 9.6116C27.7539 8.45894 27.1002 7.406 26.0672 6.89466L20.16 3.9706C18.8167 3.30566 17.2424 4.28302 17.2424 5.78189V30.1292C17.2424 31.2818 17.8961 32.3348 18.9291 32.8461L24.8363 35.7702C26.1796 36.4351 27.7539 35.4577 27.7539 33.9589V9.6116Z" stroke="#3139CE" stroke-width="2"/>
<path d="M2.52637 9.6116C2.52637 8.45894 3.18004 7.406 4.21306 6.89466L10.1202 3.9706C11.4636 3.30566 13.0379 4.28302 13.0379 5.78189V30.1292C13.0379 31.2818 12.3842 32.3348 11.3512 32.8461L5.44401 35.7702C4.1007 36.4351 2.52637 35.4577 2.52637 33.9589V9.6116Z" stroke="#3139CE" stroke-width="2"/>
<mask id="path-4-outside-1_626_178" maskUnits="userSpaceOnUse" x="31.0098" y="26.6553" width="17" height="21" fill="black">
<rect fill="white" x="31.0098" y="26.6553" width="17" height="21"/>
<path d="M45.6236 34.9985C45.6236 39.8425 41.419 44.5727 39.3167 45.4737C37.2144 44.5727 33.0098 39.8425 33.0098 34.9985C33.0098 31.4952 35.8335 28.6553 39.3167 28.6553C42.7999 28.6553 45.6236 31.4952 45.6236 34.9985Z"/>
</mask>
<path d="M45.6236 34.9985C45.6236 39.8425 41.419 44.5727 39.3167 45.4737C37.2144 44.5727 33.0098 39.8425 33.0098 34.9985C33.0098 31.4952 35.8335 28.6553 39.3167 28.6553C42.7999 28.6553 45.6236 31.4952 45.6236 34.9985Z" fill="white"/>
<path d="M39.3167 45.4737L38.5288 47.312C39.0319 47.5276 39.6014 47.5276 40.1045 47.312L39.3167 45.4737ZM43.6236 34.9985C43.6236 36.871 42.7937 38.8699 41.6133 40.5774C40.3954 42.3392 39.0829 43.398 38.5288 43.6354L40.1045 47.312C41.6528 46.6484 43.4937 44.8916 44.9037 42.852C46.3511 40.7582 47.6236 37.9699 47.6236 34.9985H43.6236ZM40.1045 43.6354C39.5505 43.398 38.2379 42.3392 37.02 40.5774C35.8396 38.8699 35.0098 36.871 35.0098 34.9985H31.0098C31.0098 37.9699 32.2822 40.7582 33.7297 42.852C35.1397 44.8916 36.9806 46.6484 38.5288 47.312L40.1045 43.6354ZM35.0098 34.9985C35.0098 32.589 36.9488 30.6553 39.3167 30.6553V26.6553C34.7181 26.6553 31.0098 30.4015 31.0098 34.9985H35.0098ZM39.3167 30.6553C41.6845 30.6553 43.6236 32.589 43.6236 34.9985H47.6236C47.6236 30.4015 43.9153 26.6553 39.3167 26.6553V30.6553Z" fill="#3139CE" mask="url(#path-4-outside-1_626_178)"/>
<circle cx="39.3168" cy="35.1127" r="2.62788" fill="white" stroke="#3139CE" stroke-width="2"/>
</svg>
