<svg width="48" height="48" viewBox="0 0 48 48" fill="none" xmlns="http://www.w3.org/2000/svg">
<path fill-rule="evenodd" clip-rule="evenodd" d="M13 13.1513C13 7.2833 17.701 2.52632 23.5 2.52632C29.299 2.52632 34 7.2833 34 13.1513V19.5263H13V13.1513ZM23.5 6.77632C20.0206 6.77632 17.2 9.63051 17.2 13.1513V15.2763H29.8V13.1513C29.8 9.63051 26.9794 6.77632 23.5 6.77632Z" stroke="#3139CE" stroke-width="2"/>
<path fill-rule="evenodd" clip-rule="evenodd" d="M14.75 14.5263C9.91751 14.5263 6 18.7038 6 23.8569V32.1957C6 37.3489 9.91751 41.5263 14.75 41.5263H32.25C37.0825 41.5263 41 37.3489 41 32.1957V23.8569C41 18.7038 37.0825 14.5263 32.25 14.5263H14.75ZM27.073 26.3144C27.073 27.351 26.6224 28.2823 25.9063 28.9232V31.7892C25.9063 33.0779 24.8617 34.1225 23.573 34.1225C22.2843 34.1225 21.2397 33.0779 21.2397 31.7892V28.9232C20.5236 28.2823 20.073 27.351 20.073 26.3144C20.073 24.3814 21.64 22.8144 23.573 22.8144C25.506 22.8144 27.073 24.3814 27.073 26.3144Z" fill="white"/>
<path d="M25.9063 28.9232L25.2394 28.1781C25.0275 28.3678 24.9063 28.6388 24.9063 28.9232H25.9063ZM21.2397 28.9232H22.2397C22.2397 28.6388 22.1185 28.3678 21.9066 28.1781L21.2397 28.9232ZM7 23.8569C7 19.1946 10.5293 15.5263 14.75 15.5263V13.5263C9.30568 13.5263 5 18.213 5 23.8569H7ZM7 32.1957V23.8569H5V32.1957H7ZM14.75 40.5263C10.5293 40.5263 7 36.8581 7 32.1957H5C5 37.8397 9.30568 42.5263 14.75 42.5263V40.5263ZM32.25 40.5263H14.75V42.5263H32.25V40.5263ZM40 32.1957C40 36.8581 36.4707 40.5263 32.25 40.5263V42.5263C37.6943 42.5263 42 37.8397 42 32.1957H40ZM40 23.8569V32.1957H42V23.8569H40ZM32.25 15.5263C36.4707 15.5263 40 19.1946 40 23.8569H42C42 18.213 37.6943 13.5263 32.25 13.5263V15.5263ZM14.75 15.5263H32.25V13.5263H14.75V15.5263ZM26.5732 29.6683C27.4923 28.8458 28.073 27.6473 28.073 26.3144H26.073C26.073 27.0547 25.7525 27.7189 25.2394 28.1781L26.5732 29.6683ZM26.9063 31.7892V28.9232H24.9063V31.7892H26.9063ZM23.573 35.1225C25.4139 35.1225 26.9063 33.6301 26.9063 31.7892H24.9063C24.9063 32.5256 24.3094 33.1225 23.573 33.1225V35.1225ZM20.2397 31.7892C20.2397 33.6301 21.732 35.1225 23.573 35.1225V33.1225C22.8366 33.1225 22.2397 32.5256 22.2397 31.7892H20.2397ZM20.2397 28.9232V31.7892H22.2397V28.9232H20.2397ZM19.073 26.3144C19.073 27.6473 19.6537 28.8458 20.5728 29.6683L21.9066 28.1781C21.3935 27.7189 21.073 27.0547 21.073 26.3144H19.073ZM23.573 21.8144C21.0877 21.8144 19.073 23.8291 19.073 26.3144H21.073C21.073 24.9337 22.1923 23.8144 23.573 23.8144V21.8144ZM28.073 26.3144C28.073 23.8291 26.0583 21.8144 23.573 21.8144V23.8144C24.9537 23.8144 26.073 24.9337 26.073 26.3144H28.073Z" fill="#3139CE"/>
</svg>
