<svg width="48" height="48" viewBox="0 0 48 48" fill="none" xmlns="http://www.w3.org/2000/svg">
<rect width="15.5083" height="16.6121" rx="7.75417" transform="matrix(-1 0 0 1 18.0283 21.6782)" fill="white" stroke="#3139CE" stroke-width="2"/>
<path d="M33.061 11.5443C33.061 6.56375 28.9751 2.52625 23.9946 2.52625C19.0141 2.52625 14.9281 6.56375 14.9281 11.5443C14.9281 16.5248 19.0141 20.5623 23.9946 20.5623C28.9751 20.5623 33.061 16.5248 33.061 11.5443Z" fill="white" stroke="#3139CE" stroke-width="2"/>
<path d="M15.6436 16.3381C15.6436 13.3891 13.2243 10.9985 10.2753 10.9985C7.32631 10.9985 4.90701 13.3891 4.90701 16.3381C4.90701 19.287 7.32631 21.6777 10.2753 21.6777C13.2243 21.6777 15.6436 19.287 15.6436 16.3381Z" fill="white" stroke="#3139CE" stroke-width="2"/>
<rect x="29.959" y="21.6782" width="15.5083" height="16.6121" rx="7.75417" fill="white" stroke="#3139CE" stroke-width="2"/>
<path d="M35.3262 32.0068C35.3262 25.7477 30.2522 20.6738 23.9931 20.6738C17.734 20.6738 12.66 25.7478 12.66 32.0068V34.1402C12.66 40.3993 17.734 45.4733 23.9931 45.4733C30.2522 45.4733 35.3262 40.3993 35.3262 34.1402V32.0068Z" fill="white" stroke="#3139CE" stroke-width="2"/>
<path d="M32.3447 16.3381C32.3447 13.3891 34.764 10.9985 37.713 10.9985C40.662 10.9985 43.0813 13.3891 43.0813 16.3381C43.0813 19.287 40.662 21.6777 37.713 21.6777C34.764 21.6777 32.3447 19.287 32.3447 16.3381Z" fill="white" stroke="#3139CE" stroke-width="2"/>
</svg>
